<?xml version="1.0" standalone="no"?><!DOCTYPE svg PUBLIC "-//W3C//DTD SVG 1.1//EN" "http://www.w3.org/Graphics/SVG/1.1/DTD/svg11.dtd"><svg t="1728876959928" class="icon" viewBox="0 0 1024 1024" version="1.1" xmlns="http://www.w3.org/2000/svg" p-id="5172" width="64" height="64" data-spm-anchor-id="a313x.search_index.0.i11.35623a81sbHwp3" xmlns:xlink="http://www.w3.org/1999/xlink"><path d="M511.552 1009.536c-263.52 0-477.92-212.512-477.92-473.696 0-39.456 4.896-78.624 14.56-116.48 6.24-24.512 14.56-48.64 24.672-71.808 3.552-8.096 9.856-13.792 17.28-17.152 18.752-30.08 49.696-94.112 49.6-191.168-6.336-8.224-14.912-16.096-26.784-23.008-13.632-7.904-31.872-30.4-29.664-55.616 1.632-18.464 13.728-33.632 32.416-40.512 25.76-9.472 61.824-7.744 113.568 5.6l5.248 1.792c29.952 12.96 117.632 47.168 162.976 50.048 15.296 0.864 32.448-2.72 50.656-6.688 18.976-4.096 40.512-8.704 63.392-8.704 263.52 0 477.92 212.512 477.92 473.728s-214.4 473.696-477.92 473.696zM511.584 125.376c-19.68 0-38.208 4-54.528 7.52-15.68 3.392-30.432 6.496-43.584 5.76-39.008-2.464-109.472-25.44-135.232-36.608l-22.24 0c-44.512-11.488-66.752-30.336-88.928-22.144-0.608 0.224-1.024 0.288-1.536 0.448-5.248-2.752-6.624 1.824 0 0 6.528 3.456 18.88 18.528 28.96 72.768 4 21.536-8.16 31.712-2.72 38.784 0.064 83.776-26.56 139.008-42.688 164.96-6.4 2.88-11.808 7.808-14.88 14.752-8.704 19.968-15.84 40.832-21.216 61.952-8.32 32.672-12.544 66.496-12.544 100.512 0 225.376 184.448 408.736 411.136 408.736s411.136-183.36 411.136-408.736c0-225.376-184.416-408.736-411.136-408.736zM718.176 575.104c-24.512 0-45.856-29.632-57.248-73.536 38.784-34.464 68.576-97.12 68.576-97.12-21.984 10.816-54.208 12.928-77.088 12.832 2.688-75.296 31.072-134.624 65.792-134.624 36.48 0 66.048 65.472 66.048 146.208s-29.568 146.208-66.048 146.208zM504.64 612.736c-24.512 0-45.856-29.632-57.248-73.536 38.784-34.464 68.576-97.12 68.576-97.12-21.984 10.784-54.24 12.896-77.088 12.832 2.656-75.328 31.072-134.624 65.76-134.624 36.48 0 66.048 65.472 66.048 146.208s-29.568 146.208-66.048 146.208z" fill="#8f6df6" p-id="5173" data-spm-anchor-id="a313x.search_index.0.i0.35623a81sbHwp3" class=""></path></svg>